<svg width="18" height="30" viewBox="0 0 18 30" fill="none" xmlns="http://www.w3.org/2000/svg">
<path fill-rule="evenodd" clip-rule="evenodd" d="M0.500001 8.50001C0.500154 6.86424 0.972297 5.26325 1.85978 3.88916C2.74726 2.51507 4.01237 1.42625 5.50332 0.753332C6.99427 0.080419 8.64772 -0.147996 10.2653 0.0954962C11.8828 0.338988 13.3957 1.04404 14.6225 2.12606C15.8493 3.20808 16.7378 4.62109 17.1814 6.19556C17.6251 7.77002 17.605 9.43905 17.1236 11.0024C16.6421 12.5657 15.7199 13.9569 14.4674 15.0091C13.2149 16.0612 11.6854 16.7297 10.0625 16.9341V28.6875C10.0625 28.9693 9.95056 29.2395 9.7513 29.4388C9.55205 29.6381 9.28179 29.75 9 29.75C8.71821 29.75 8.44796 29.6381 8.2487 29.4388C8.04944 29.2395 7.9375 28.9693 7.9375 28.6875V16.9363C5.88255 16.6774 3.99284 15.6771 2.62333 14.1233C1.25383 12.5695 0.498773 10.5691 0.500001 8.49788V8.50001Z" fill="black"/>
</svg>
